<?xml version="1.0" encoding="UTF-8"?><svg id="b" xmlns="http://www.w3.org/2000/svg" viewBox="0 0 25.0734 3.7581"><g id="c"><path d="M18.3317,2.4847c-.1944.8524-1.0148,1.2523-1.8897,1.2528l-3.6353.0021s.04-.1789.0636-.2727l.2682-1.0672.3873-1.5386L13.7375.0051l3.7325.0093c.3057.0008.6096.0922.8377.2814.3507.2908.3972.7764.2528,1.1856l-.2288,1.0034ZM17.4684,2.3458l.2291-.937c.0413-.1691.0156-.3566-.0928-.4858-.092-.1095-.2455-.1624-.4146-.1946l-2.6906-.0019-.561,2.2705,2.668-.0088c.4017-.0013.7673-.2552.8619-.6423Z" fill="#fbfbfb"/><path d="M8.0908.7258l-.1788.7567,3.3804.0027-.2387.7401-3.3238.0037s-.1858.6185-.2264.7874h.1332l3.9338-.0293c-.0839.2065-.287.7711-.287.7711l-4.9013-.0037.3333-1.3476.2723-1.0891L7.3347.0017l4.895-.0017-.2297.7248-3.9091.001Z" fill="#d69a35"/><path d="M5.5658,2.7102c-.1798.7118-.7529,1.0349-1.4606,1.0362l-4.1052.0075L.9461.0026,4.6565.0002c.4823-.0003,1.0561.098,1.1718.5542.0963.3796-.0379.7785-.2987,1.065-.0728.08-.1614.1439-.2577.1931l-.0589.0301c.0155.0124.0303.0216.0443.0289.081.0418.1517.1011.2004.1782l.0042.0066c.1227.1946.1602.4309.1039.654h0ZM4.8643.872c-.07-.117-.2179-.145-.3382-.1451l-2.7929-.0035-.1786.7644,2.9146-.0136c.1479-.0007.2798-.1084.3462-.1873.0874-.1039.1238-.2897.049-.4149ZM4.6009,2.7263c.0697-.1494.0675-.2568,0-.3604-.0557-.0856-.1659-.1315-.2911-.1319l-2.9428-.0099-.1841.7663,2.9977-.006c.1781-.0004.3554-.1193.4201-.2581Z" fill="#d69a35"/><path d="M24.4584,3.088c-.0159.031-.0345.0606-.057.0871-.3446.4055-.9062.5661-1.4307.5645l-2.6552-.0079c-.2876-.0009-.5818-.104-.7908-.2902-.2512-.2237-.3389-.5866-.2646-.91l.3103-1.3504c.0975-.4243.3914-.7813.7807-.9705.3122-.1517.641-.2055.9913-.2058,0,0,2.7493.0314,2.8278.0375.2792.0215.5516.1371.7171.365.1721.237.2253.5463.1581.8329l-.2524,1.0758c-.0474.2022-.2616.6297-.3345.7719ZM23.1131,2.9872c.3391-.0024.6774-.2243.7519-.5357l.2772-1.159c.0727-.3042-.1894-.5578-.4914-.5588l-2.3437-.0081c-.4704-.0016-.7961.2431-.9006.7008l-.2357,1.033c-.0446.1957.0646.419.245.4782.1604.0527.3211.0661.4932.065l2.204-.0153Z" fill="#fbfbfb"/></g></svg>